<?xml version="1.0" encoding="iso-8859-1"?>
<!-- Generator: Adobe Illustrator 19.0.0, SVG Export Plug-In . SVG Version: 6.00 Build 0)  -->
<svg version="1.1" id="Capa_1" xmlns="http://www.w3.org/2000/svg" xmlns:xlink="http://www.w3.org/1999/xlink" x="0px" y="0px"
	 viewBox="0 0 512 512" style="enable-background:new 0 0 512 512;" xml:space="preserve">
<path style="fill:#81C8EE;" d="M121.003,450.99H46.004c-24.852,0-45.999-20.147-45.999-44.999v-29.999c0-8.284,6.716-15,15-15
	h105.998V450.99z"/>
<path style="fill:#CAE8F9;" d="M450.996,59.999v345.993c0,24.898-20.099,44.999-44.999,44.999H46.004
	c24.9,0,44.999-20.101,44.999-44.999V63.299c0-29.999,20.4-57.598,49.798-62.4C144.403,0.3,147.703,0.3,151.002,0.3V0h29.999
	L450.996,59.999z"/>
<path style="fill:#B7E0F6;" d="M450.996,59.999v345.993c0,24.898-20.099,44.999-44.999,44.999h-89.998V29.999L450.996,59.999z"/>
<g>
	<path style="fill:#81C8EE;" d="M360.997,195.996c0,8.399-6.599,15-15,15H196.001c-8.401,0-15-6.601-15-15c0-8.401,6.599-15,15-15
		h149.997C354.399,180.996,360.997,187.595,360.997,195.996z"/>
	<path style="fill:#81C8EE;" d="M315.998,270.994H196.001c-8.291,0-15-6.709-15-15s6.709-15,15-15h119.997c8.291,0,15,6.709,15,15
		C330.998,264.285,324.289,270.994,315.998,270.994z"/>
	<path style="fill:#81C8EE;" d="M360.997,134.997c0,8.399-6.599,15-15,15H196.001c-8.401,0-15-6.601-15-15c0-8.401,6.599-15,15-15
		h149.997C354.399,119.997,360.997,126.596,360.997,134.997z"/>
</g>
<path style="fill:#FD4E26;" d="M390.997,315.993v180.996c0,6-3.6,11.4-9.3,13.799c-1.8,0.901-3.9,1.201-5.7,1.201
	c-3.9,0-7.8-1.5-10.499-4.501l-49.5-50.199l-49.5,50.199c-4.199,4.501-10.499,5.7-16.199,3.3c-5.7-2.399-9.3-7.798-9.3-13.799
	V315.993c0-8.401,6.599-15,15-15h119.997C384.398,300.994,390.997,307.592,390.997,315.993z"/>
<path style="fill:#FD3018;" d="M390.997,315.993v180.996c0,6-3.6,11.4-9.3,13.799c-1.8,0.901-3.9,1.201-5.7,1.201
	c-3.9,0-7.8-1.5-10.499-4.501l-49.5-50.199V300.994h59.999C384.398,300.994,390.997,307.592,390.997,315.993z"/>
<path style="fill:#FEA832;" d="M315.998,240.995c-41.399,0-74.998,33.599-74.998,74.998s33.599,74.998,74.998,74.998
	s74.998-33.599,74.998-74.998S357.398,240.995,315.998,240.995z"/>
<path style="fill:#FEDB41;" d="M315.998,270.994c-24.9,0-44.999,20.099-44.999,44.999c0,24.898,20.099,44.999,44.999,44.999
	c24.9,0,44.999-20.101,44.999-44.999C360.997,291.093,340.899,270.994,315.998,270.994z"/>
<path style="fill:#FE9923;" d="M390.997,315.993c0,41.399-33.599,74.998-74.998,74.998V240.995
	C357.398,240.995,390.997,274.594,390.997,315.993z"/>
<path style="fill:#FCBF29;" d="M360.997,315.993c0,24.898-20.099,44.999-44.999,44.999v-89.998
	C340.899,270.994,360.997,291.093,360.997,315.993z"/>
<path style="fill:#81C8EE;" d="M511.994,75.125c-0.014,8.233-6.767,14.873-15,14.873H235.207c-13.369,0-24.206-10.838-24.206-24.206
	v-5.793c0-33-27-59.999-59.999-59.999h284.994C477.438,0,512.065,33.668,511.994,75.125z"/>
<path style="fill:#4DBBEB;" d="M511.994,74.998C511.994,33.599,477.395,0,435.996,0H256c32.998,0,59.999,26.998,59.999,59.999
	v29.999h180.996C505.395,89.998,511.994,83.397,511.994,74.998z"/>
<g>
</g>
<g>
</g>
<g>
</g>
<g>
</g>
<g>
</g>
<g>
</g>
<g>
</g>
<g>
</g>
<g>
</g>
<g>
</g>
<g>
</g>
<g>
</g>
<g>
</g>
<g>
</g>
<g>
</g>
</svg>
